<svg xmlns="http://www.w3.org/2000/svg" viewBox="0 0 589.024 575.385"><defs><clipPath id="a"><circle cx="76.565" cy="76.565" r="76.565" transform="translate(-6312 -4604)" fill="#4189c6" stroke="#707070"/></clipPath><clipPath id="b"><circle cx="69.731" cy="69.731" r="69.731" transform="translate(-6312 -4604)" fill="#4189c6" stroke="#707070"/></clipPath></defs><g transform="rotate(45 -9092.524 5627.376)" clip-path="url(#a)"><g fill="#4189c6"><path d="M-6311.958-4606.582h7.142v158.294h-7.142zM-6258.902-4606.582h7.142v158.294h-7.142zM-6205.846-4606.582h7.142v158.294h-7.142zM-6285.43-4606.582h7.142v158.294h-7.142zM-6232.374-4606.582h7.142v158.294h-7.142zM-6179.318-4606.582h7.142v158.294h-7.142zM-6298.694-4606.582h7.142v158.294h-7.142zM-6245.638-4606.582h7.142v158.294h-7.142zM-6192.582-4606.582h7.142v158.294h-7.142zM-6272.166-4606.582h7.142v158.294h-7.142zM-6219.11-4606.582h7.142v158.294h-7.142zM-6166.054-4606.582h7.142v158.294h-7.142z"/></g></g><g transform="rotate(45 -8468.314 5909.236)" opacity=".386" clip-path="url(#b)"><g fill="#c3c1bc"><path d="M-6311.962-4606.352h6.505v144.165h-6.505zM-6263.642-4606.352h6.505v144.165h-6.505zM-6215.321-4606.352h6.505v144.165h-6.505zM-6287.802-4606.352h6.505v144.165h-6.505zM-6239.481-4606.352h6.505v144.165h-6.505zM-6191.161-4606.352h6.505v144.165h-6.505zM-6299.882-4606.352h6.505v144.165h-6.505zM-6251.561-4606.352h6.505v144.165h-6.505zM-6203.241-4606.352h6.505v144.165h-6.505zM-6275.722-4606.352h6.505v144.165h-6.505zM-6227.401-4606.352h6.505v144.165h-6.505zM-6179.081-4606.352h6.505v144.165h-6.505z"/></g></g></svg>
