<svg xmlns="http://www.w3.org/2000/svg" width="100" height="81.954"><path data-name="Path 244" d="M45.759 56.413A4.241 4.241 0 1050 52.172a4.246 4.246 0 00-4.241 4.241zm5.552 0A1.311 1.311 0 1150 55.102a1.313 1.313 0 011.311 1.311zm0 0" fill="#4189c6"/><path data-name="Path 245" d="M92.089 32.041a1.465 1.465 0 001.465-1.465v-21.5a2.638 2.638 0 00-2.635-2.635H9.079a2.638 2.638 0 00-2.635 2.635v38.478a2.638 2.638 0 002.635 2.635h81.84a2.638 2.638 0 002.635-2.635V36.433a1.465 1.465 0 00-2.93 0v10.83H9.375V9.375h81.25v21.2a1.465 1.465 0 001.465 1.465zm0 0" fill="#fff"/><path data-name="Path 246" d="M95.6 0H17.88a1.465 1.465 0 000 2.93H95.6a1.476 1.476 0 011.474 1.475v57.09a1.476 1.476 0 01-1.474 1.474H4.4a1.476 1.476 0 01-1.475-1.474V4.4A1.476 1.476 0 014.4 2.925h7.614a1.465 1.465 0 000-2.93H4.4a4.409 4.409 0 00-4.4 4.4v57.09a4.409 4.409 0 004.4 4.4h30.54l-1.777 2.862a1.465 1.465 0 102.489 1.545l2.736-4.407h23.217l8.148 13.126h-39.51l1.776-2.862a1.465 1.465 0 10-2.489-1.545l-2.735 4.407h-5.117a1.465 1.465 0 000 2.93h56.644a1.465 1.465 0 100-2.93h-5.116L65.056 65.9H95.6a4.409 4.409 0 004.4-4.4V4.4A4.409 4.409 0 0095.6 0zm0 0" fill="#fff"/></svg>
