<svg xmlns="http://www.w3.org/2000/svg" width="100" height="83.327"><g data-name="Group 168"><path data-name="Path 241" d="M8.921 54.162a22.706 22.706 0 011.649 11.464 35.768 35.768 0 01-2.927 11.51 10.336 10.336 0 01-.89 1.4 9.5 9.5 0 00-1.477 2.649 1.666 1.666 0 001.6 2.136h32.331a1.668 1.668 0 001.62-1.284c.457-1.916 2.166-6.962 4.833-8.74a102.521 102.521 0 0010.653 3.289 5.414 5.414 0 001.116.12 5.185 5.185 0 004.91-3.852 7.97 7.97 0 00.219-4.89 2.735 2.735 0 01-.114-1.333c.067-.266.282-.426.98-.833a10.145 10.145 0 00.927-.6 2.236 2.236 0 00.9-1.5 3.494 3.494 0 00-.334-1.875c.371-.3.745-.6.976-.814 1.391-1.224.5-2.859.022-3.74-.166-.3-.358-.653-.543-1.06a2.091 2.091 0 01-.128-1.129 4.6 4.6 0 011.357-.9 9.438 9.438 0 001.391-.833 4.231 4.231 0 001.99-2.734 5.841 5.841 0 00-1.812-4.138 50.48 50.48 0 01-5.5-9.277c-.07-.149-.193-.4-.2-.448 0-.272.5-.743.94-1.166a5.305 5.305 0 001.961-3.129 8.267 8.267 0 00-1.083-4.156 18.5 18.5 0 01-1.11-3.018l-.1-.472a34.408 34.408 0 00-1.167-4.342 25.7 25.7 0 00-5.192-8.765c-3.543-3.856-8.438-5.426-12.749-6.451a77.272 77.272 0 00-4.019-.854A4.988 4.988 0 0035.005 0H28.34a5.008 5.008 0 00-4.9 4 32.9 32.9 0 00-14.314 7.31 21.868 21.868 0 00-7.759 11.523 41.071 41.071 0 00-1.36 11.322c.094 6.9 3 10.945 5.56 14.514a28.694 28.694 0 013.353 5.495zM26.672 5a1.667 1.667 0 011.667-1.666h6.665A1.666 1.666 0 0136.672 5v13.332h-10zm5 23.332a13.332 13.332 0 11-13.333 13.332 13.332 13.332 0 0113.333-13.332zm0-3.333a16.284 16.284 0 00-1.667.085v-3.419h3.333v3.419a16.263 16.263 0 00-1.666-.085zm-27.091-1.28a18.679 18.679 0 016.641-9.833 30 30 0 0112.117-6.467v10.913a3.333 3.333 0 003.332 3.333v4.1a16.666 16.666 0 1010 0v-4.1a3.333 3.333 0 003.333-3.333V7.811c1.061.211 2.118.435 3.179.694 4.021.955 8.148 2.28 11.072 5.469a22.363 22.363 0 014.513 7.643 31.437 31.437 0 011.05 3.934l.109.485a21.038 21.038 0 001.3 3.609 9.436 9.436 0 01.833 2.388c-.034.285-.52.743-.95 1.15a4.984 4.984 0 00-1.979 3.563 4.3 4.3 0 00.534 1.916 53.439 53.439 0 005.871 9.884 7.886 7.886 0 011.078 1.61c-.177.167-.511.431-.667.555a7.374 7.374 0 01-.909.526 4.971 4.971 0 00-3.083 3.257 5.473 5.473 0 00.376 3.118c.22.48.447.9.645 1.263l.091.167c-.605.5-1.345 1.055-1.35 1.058a1.667 1.667 0 00-.315 2.333 4.633 4.633 0 01.323.5h-.012a4.637 4.637 0 00-2.517 2.916 5.867 5.867 0 00.1 2.871 4.794 4.794 0 01-.132 3.1 1.865 1.865 0 01-2.166 1.509 105.788 105.788 0 01-10.938-3.424c-1.22-.429-2.332-.833-3.246-1.167a105.43 105.43 0 00-2.156-.765c-5.1-1.666-6.134-3.5-6.1-4.739a1.668 1.668 0 00-1.623-1.71 1.617 1.617 0 00-1.71 1.623c-.086 3.451 2.736 6.141 8.4 8 .363.118 1.091.382 2.055.731l.412.149a21.638 21.638 0 00-4.165 7.967H9.801a10.346 10.346 0 00.866-1.452 39.826 39.826 0 003.212-12.532 26 26 0 00-1.886-13.145 31.49 31.49 0 00-3.717-6.139c-2.5-3.481-4.855-6.767-4.934-12.619a37.8 37.8 0 011.241-10.388zm0 0" fill="#fff"/></g><path data-name="Path 242" d="M100 56.662V43.329a13.332 13.332 0 10-26.664 0v13.333a13.346 13.346 0 008.333 12.35v4.315h-3.335a5 5 0 00-5 5v1.671a3.333 3.333 0 003.332 3.333h20a3.333 3.333 0 003.333-3.333v-1.666a5 5 0 00-5-5h-3.333v-4.315a13.348 13.348 0 008.333-12.35zm-23.181 1.666h6.516a1.667 1.667 0 000-3.333h-6.667v-3.333h6.667a1.666 1.666 0 000-3.332h-6.667v-3.332h6.667a1.667 1.667 0 000-3.333h-6.516a10 10 0 0119.848 1.666v13.333a10 10 0 01-19.848 1.666zm19.848 20v1.67h-20v-1.666a1.668 1.668 0 011.667-1.667h16.665a1.667 1.667 0 011.666 1.667zm-8.333-5h-3.333V69.88a12.194 12.194 0 003.333 0zm0 0" fill="#4189c6"/><path data-name="Path 243" d="M31.674 51.663a10 10 0 10-10-10 10 10 0 0010 10zm0-16.665a6.667 6.667 0 11-6.667 6.667 6.667 6.667 0 016.667-6.667zm0 0" fill="#4189c6"/></svg>
