<svg xmlns="http://www.w3.org/2000/svg" width="78.161" height="100"><defs><clipPath id="a"><path data-name="Rectangle 815" fill="#fff" d="M0 0h78.161v100H0z"/></clipPath></defs><path data-name="Path 236" d="M50.652 47.869h1.594a4.887 4.887 0 000-9.773H33.013a4.887 4.887 0 000 9.773h1.594l-.541 4.13a9.129 9.129 0 00-4.157-.995h-3.85v-27.6l2.588-4.3a3.831 3.831 0 00.266-3.393l-3.828-9.452a2.214 2.214 0 00-2.061-1.39h-4.925a2.213 2.213 0 00-2.06 1.389l-3.828 9.453a3.831 3.831 0 00.266 3.393l2.587 4.3v27.6H11.21a9.251 9.251 0 00-1.671.151 1.43 1.43 0 00.257 2.836 1.476 1.476 0 00.26-.023 6.4 6.4 0 011.154-.105h3.854v2.651a3.814 3.814 0 003.809 3.809h3.375a3.814 3.814 0 003.809-3.809v-2.651h3.852a6.323 6.323 0 015.344 9.713l-.028.049c-1.862 2.941-2.588 4.695.907 11.532l.031.064a17.336 17.336 0 011.93 7.995c0 .154 0 .308-.005.46a1.429 1.429 0 001.394 1.463h.036a1.43 1.43 0 001.429-1.4c0-.173.006-.351.006-.528a20.18 20.18 0 00-2.213-9.236l-.03-.063a28.107 28.107 0 01-1.839-4.209h13.762l3.653 27.85a1.43 1.43 0 001.415 1.245 1.457 1.457 0 00.188-.013 1.431 1.431 0 001.232-1.6zm-27.455-8.35h-5.273v-6.113h5.273zm0-8.973h-5.273v-6.114h5.273zm-5.273 11.829h5.273v6.113h-5.273zm-3.065-25.6l3.666-9.055h4.065l3.669 9.055a.951.951 0 01-.066.846l-2.375 3.95h-6.515l-2.376-3.95a.954.954 0 01-.066-.846zm7.386 40.687h-3.374a.951.951 0 01-.949-.95v-5.164h5.273v5.164a.951.951 0 01-.95.95zm8.739-14.482a2.028 2.028 0 012.026-2.027h19.234a2.027 2.027 0 110 4.054H33.013a2.029 2.029 0 01-2.026-2.027zm5.726 23.866a9.55 9.55 0 01.955-1.736l.029-.046a9.174 9.174 0 00-1.007-11.07l.8-6.126h10.276l2.489 18.979zm0 0" fill="#fff"/><path data-name="Path 237" d="M38.895 88.019a1.43 1.43 0 00-1.9.7c-2.772 5.974-10.468 7.228-16.435 7.228-5.4 0-9.647-.983-12.628-2.921-3.3-2.144-4.9-5.352-4.9-9.806a17.324 17.324 0 011.93-7.993l.03-.063c3.493-6.837 2.77-8.592.909-11.531l-.03-.05a6.321 6.321 0 01.24-7.131 1.43 1.43 0 10-2.3-1.694 9.183 9.183 0 00-.383 10.306l.031.051a4.855 4.855 0 011.135 2.829c-.025 1.244-.7 3.087-2.176 5.976l-.03.062a20.171 20.171 0 00-2.214 9.236c0 10.052 7.241 15.587 20.391 15.587a35.219 35.219 0 007.723-.78 1.428 1.428 0 001.088.768 1.476 1.476 0 00.187.012 1.431 1.431 0 001.417-1.245l.042-.321a14.186 14.186 0 008.574-7.32 1.43 1.43 0 00-.7-1.9zm0 0" fill="#fff"/><path data-name="Path 238" d="M20.561 64.842a6.548 6.548 0 106.548 6.548 6.556 6.556 0 00-6.548-6.548zm0 10.235a3.688 3.688 0 113.688-3.687 3.691 3.691 0 01-3.688 3.688zm0 0" fill="#fff"/><g data-name="Group 166"><g data-name="Group 165" clip-path="url(#a)"><path data-name="Path 239" d="M16.737 83.682a1.43 1.43 0 000 2.859h7.648a1.43 1.43 0 000-2.859zm0 0" fill="#fff"/><path data-name="Path 240" d="M74.224 41.575a1.43 1.43 0 002.549-1.3l-5.111-10.046a4.787 4.787 0 00-3.344-8.213 4.861 4.861 0 00-.8.066l-5.86-11.519 3.169-.849a4.339 4.339 0 003.2-3.863l2.463-.66a1.43 1.43 0 00-.74-2.762l-2.463.66a4.342 4.342 0 00-4.7-1.747l-12.15 3.255a5.971 5.971 0 102.237 8.375l6.161-1.652 6.135 12.063a4.786 4.786 0 001.916 7.993v59.621h-2.564a3.904 3.904 0 100 7.808h7.986a3.904 3.904 0 100-7.808h-2.563V32.774zm-10.9-37.468a1.473 1.473 0 011.8 1.038 1.515 1.515 0 01.052.389 1.474 1.474 0 01-1.093 1.421l-4.818 1.292a1.054 1.054 0 00-.107.028l-5.6 1.5a6 6 0 00-.761-2.849zm-14.927 8.746a3.11 3.11 0 112.2-3.808 3.115 3.115 0 01-2.2 3.808zm24.958 82.044a1.046 1.046 0 01-1.045 1.044h-7.986a1.044 1.044 0 110-2.089h7.986a1.046 1.046 0 011.045 1.045zm-5.927-69.8l.013-.007.016-.008a1.929 1.929 0 011.771 3.427l-.039.019-.039.022a1.929 1.929 0 01-1.722-3.452zm0 0" fill="#4189c6"/></g></g></svg>
